<svg xmlns="http://www.w3.org/2000/svg" xmlns:xlink="http://www.w3.org/1999/xlink" preserveAspectRatio="xMidYMid" width="23" height="27" viewBox="0 0 23 27">
  <defs>
    <style>
      .cls-1 {
        fill: #bababa;
        fill-rule: evenodd;
      }
    </style>
  </defs>
  <path d="M22.000,20.000 L20.000,20.000 L20.000,18.000 L21.000,18.000 L21.000,16.000 L2.000,16.000 L2.000,18.000 L3.000,18.000 L3.000,20.000 L1.000,20.000 C0.448,20.000 -0.000,19.552 -0.000,19.000 L-0.000,9.000 C-0.000,8.033 4.000,7.000 11.000,7.000 C11.371,7.000 11.699,7.000 12.000,7.000 C18.937,7.000 23.000,8.010 23.000,9.000 L23.000,19.000 C23.000,19.552 22.552,20.000 22.000,20.000 ZM19.500,10.000 C18.671,10.000 18.000,10.671 18.000,11.500 C18.000,12.328 18.671,13.000 19.500,13.000 C20.328,13.000 21.000,12.328 21.000,11.500 C21.000,10.671 20.328,10.000 19.500,10.000 ZM4.000,1.000 C4.000,0.448 4.448,-0.000 5.000,-0.000 L18.000,-0.000 C18.552,-0.000 19.000,0.448 19.000,1.000 L19.000,6.000 L4.000,6.000 L4.000,1.000 ZM19.000,26.000 C19.000,26.552 18.552,27.000 18.000,27.000 L5.000,27.000 C4.448,27.000 4.000,26.552 4.000,26.000 L4.000,17.000 L19.000,17.000 L19.000,26.000 ZM17.000,18.000 L6.000,18.000 L6.000,19.000 L17.000,19.000 L17.000,18.000 ZM17.000,20.000 L6.000,20.000 L6.000,21.000 L17.000,21.000 L17.000,20.000 ZM17.000,22.000 L6.000,22.000 L6.000,23.000 L17.000,23.000 L17.000,22.000 ZM17.000,24.000 L6.000,24.000 L6.000,25.000 L17.000,25.000 L17.000,24.000 Z" class="cls-1"/>
</svg>
